<?xml version="1.0" encoding="UTF-8" standalone="no"?>
<!DOCTYPE svg PUBLIC "-//W3C//DTD SVG 20010904//EN"
              "http://www.w3.org/TR/2001/REC-SVG-20010904/DTD/svg10.dtd">

<svg xmlns="http://www.w3.org/2000/svg"
     width="2.56in" height="3.41333in"
     viewBox="0 0 768 1024">
  <path id="Unnamed"
        fill="none" stroke="black" stroke-width="1"
        d="M 151.38,120.12
           C 151.38,120.12 164.12,131.62 164.12,131.62
             164.12,131.62 164.88,137.50 164.88,137.50
             164.88,137.50 163.25,142.25 163.25,142.25
             163.25,142.25 158.25,144.88 158.25,144.88
             158.25,144.88 152.88,145.00 152.88,145.00
             152.88,145.00 147.75,143.00 147.75,143.00
             147.75,143.00 146.12,138.50 146.12,138.50
             146.12,138.50 144.25,134.12 144.25,134.12
             144.25,134.12 145.38,126.88 145.38,126.88
             145.38,126.88 147.88,123.50 147.88,123.50
             147.88,123.50 151.38,120.12 151.38,120.12 Z
           M 170.75,112.88
           C 170.75,112.88 176.25,108.88 176.25,108.88
             176.25,108.88 191.12,109.00 191.12,109.00
             191.12,109.00 190.38,115.62 190.38,115.62
             190.38,115.62 188.88,120.75 188.88,120.88
             188.88,121.00 184.62,130.12 184.62,130.12
             184.62,130.12 182.50,133.88 182.50,133.88
             182.50,133.88 180.12,135.75 180.12,135.75
             180.12,135.75 175.75,131.62 175.75,131.62
             175.75,131.62 172.12,124.00 172.12,124.00
             172.12,124.00 170.75,112.88 170.75,112.88 Z
           M 201.25,123.62
           C 201.25,123.62 201.00,130.38 201.00,130.38
             201.00,130.38 200.50,137.25 200.50,137.25
             200.50,137.25 203.38,139.00 203.38,139.25
             203.38,139.50 206.88,143.00 206.88,143.00
             206.88,143.00 212.62,140.12 212.62,140.12
             212.62,140.12 220.75,133.88 220.75,133.88
             220.75,133.88 223.88,128.62 223.88,128.62
             223.88,128.62 220.50,124.00 220.50,124.00
             220.50,124.00 214.50,121.62 214.50,121.62
             214.50,121.62 203.38,121.75 203.38,121.75
             203.38,121.75 201.25,123.62 201.25,123.62 Z
           M 194.75,87.12
           C 194.75,87.12 193.12,94.50 193.12,94.50
             193.12,94.50 193.50,97.75 193.50,97.75
             193.50,97.75 195.25,100.00 195.25,100.00
             195.25,100.00 193.62,106.75 193.62,106.75
             193.62,106.75 195.12,108.88 195.12,108.88
             195.12,108.88 204.75,115.50 204.75,115.50
             204.75,115.50 210.25,115.38 210.25,115.38
             210.25,115.38 218.00,109.50 218.00,109.50
             218.00,109.50 223.88,101.75 223.88,101.75
             223.88,101.75 226.38,96.88 226.38,96.88
             226.38,96.88 224.88,88.62 224.88,88.62
             224.88,88.62 220.00,84.12 220.00,84.12
             220.00,84.12 211.75,81.38 211.75,81.38
             211.75,81.38 203.25,81.62 203.25,81.62
             203.25,81.62 199.25,83.50 199.25,83.50
             199.25,83.50 194.75,87.12 194.75,87.12 Z
           M 225.00,65.25
           C 225.00,65.25 227.25,63.12 227.25,63.12
             227.25,63.12 230.88,62.62 230.88,62.62
             230.88,62.62 235.25,62.00 235.25,62.12
             235.25,62.25 241.25,63.75 241.25,63.75
             241.25,63.75 247.75,65.50 247.75,65.50
             247.75,65.50 251.12,68.25 251.12,68.25
             251.12,68.25 251.62,73.38 251.62,73.38
             251.62,73.38 251.38,77.00 251.38,77.00
             251.38,77.00 247.75,80.25 247.75,80.25
             247.75,80.25 241.25,81.62 241.25,81.62
             241.25,81.62 235.50,80.88 235.50,80.88
             235.50,80.88 230.12,77.75 230.12,77.75
             230.12,77.75 226.88,73.25 226.88,73.25
             226.88,73.25 224.50,70.00 224.50,70.00
             224.50,70.00 225.00,65.25 225.00,65.25 Z
           M 257.38,65.75
           C 257.38,65.75 259.00,61.25 259.00,61.25
             259.00,61.25 261.12,59.38 261.12,59.38
             261.12,59.38 263.75,56.50 263.75,56.50
             263.75,56.50 266.88,55.75 266.88,55.75
             266.88,55.75 270.12,50.88 270.12,50.88
             270.12,50.88 272.38,48.75 272.38,48.75
             272.38,48.75 277.50,49.12 277.50,49.12
             277.50,49.12 280.62,54.62 280.62,54.62
             280.62,54.62 281.25,62.38 281.25,62.38
             281.25,62.38 278.12,68.00 278.12,68.00
             278.12,68.00 276.00,72.38 276.00,72.38
             276.00,72.38 275.00,77.50 275.00,77.50
             275.00,77.50 273.38,80.62 273.38,80.62
             273.38,80.62 266.12,81.00 266.12,81.00
             266.12,81.00 260.62,80.25 260.62,80.25
             260.62,80.25 258.50,75.75 258.50,75.75
             258.50,75.75 257.38,65.75 257.38,65.75 Z
           M 259.38,100.50
           C 259.38,100.50 263.38,95.50 263.38,95.50
             263.38,95.50 267.00,93.88 267.00,93.88
             267.00,93.88 275.25,93.25 275.25,93.25
             275.25,93.25 279.38,94.75 279.38,94.75
             279.38,94.75 280.75,100.75 280.75,100.75
             280.75,100.75 279.00,103.00 279.00,103.00
             279.00,103.00 274.00,104.75 274.00,104.75
             274.00,104.75 272.25,107.75 272.25,107.75
             272.25,107.75 267.75,108.75 267.75,108.75
             267.75,108.75 266.50,111.00 266.50,111.00
             266.50,111.00 262.88,111.88 262.88,111.88
             262.88,111.88 260.38,109.62 260.38,109.62
             260.38,109.62 259.38,100.50 259.38,100.50 Z
           M 228.75,113.50
           C 228.75,113.50 233.00,109.25 233.00,109.25
             233.00,109.25 246.62,109.50 246.62,109.50
             246.62,109.50 248.38,113.62 248.38,113.62
             248.38,113.62 248.50,119.38 248.50,119.38
             248.50,119.38 247.12,123.00 247.12,123.00
             247.12,123.00 243.62,126.12 243.62,126.12
             243.62,126.12 237.12,125.50 237.12,125.50
             237.12,125.50 233.38,124.38 233.38,124.38
             233.38,124.38 228.50,117.50 228.50,117.50
             228.50,117.50 228.75,113.50 228.75,113.50 Z
           M 255.12,129.50
           C 255.12,129.50 257.00,125.12 257.00,125.12
             257.00,125.12 263.12,124.25 263.12,124.25
             263.12,124.25 274.00,124.25 274.00,124.25
             274.00,124.25 277.62,124.00 277.62,124.00
             277.62,124.00 278.62,129.12 278.62,129.12
             278.62,129.12 278.12,136.12 278.12,136.12
             278.12,136.12 272.12,144.50 272.12,144.50
             272.12,144.50 266.88,145.25 266.88,145.25
             266.88,145.25 262.12,143.12 262.12,143.12
             262.12,143.12 257.38,139.62 257.38,139.62
             257.38,139.62 255.50,136.25 255.50,136.25
             255.50,136.25 255.12,129.50 255.12,129.50 Z
           M 283.00,119.88
           C 283.00,119.88 294.75,119.62 294.75,119.62
             294.75,119.62 313.75,125.50 313.75,125.50
             313.75,125.50 316.12,130.00 316.12,130.00
             316.12,130.00 313.62,132.88 313.62,132.88
             313.62,132.88 303.75,142.50 303.75,142.50
             303.75,142.50 294.88,143.88 294.88,143.88
             294.88,143.88 287.25,141.75 287.25,141.75
             287.25,141.75 284.38,137.38 284.38,137.38
             284.38,137.38 283.00,133.62 283.00,133.62
             283.00,133.62 283.00,119.88 283.00,119.88 Z
           M 171.88,189.38
           C 171.88,189.38 172.50,185.38 172.50,185.38
             172.50,185.38 177.62,182.75 177.62,182.75
             177.62,182.75 184.50,180.62 184.50,180.62
             184.50,180.62 189.88,183.75 189.88,183.75
             189.88,183.75 191.88,188.38 191.88,188.38
             191.88,188.38 190.25,194.38 190.25,194.38
             190.25,194.38 185.38,198.50 185.38,198.50
             185.38,198.50 178.25,199.88 178.25,199.88
             178.25,199.88 173.12,197.75 173.12,197.75
             173.12,197.75 171.88,189.38 171.88,189.38 Z
           M 218.50,191.00
           C 218.50,191.00 228.38,190.12 228.38,190.12
             228.38,190.12 232.25,197.62 232.25,197.62
             232.25,197.62 231.62,201.88 231.62,201.88
             231.62,201.88 226.50,200.25 226.50,200.25
             226.50,200.25 219.75,195.50 219.75,195.50
             219.75,195.50 218.50,191.00 218.50,191.00 Z
           M 258.38,215.62
           C 258.38,215.62 261.88,212.25 261.88,212.25
             261.88,212.25 262.50,208.38 262.50,208.38
             262.50,208.38 267.25,208.38 267.25,208.38
             267.25,208.38 276.62,215.25 276.62,215.25
             276.62,215.25 277.12,220.75 277.12,220.75
             277.12,220.75 273.25,228.12 273.25,228.12
             273.25,228.12 269.12,229.00 269.12,229.00
             269.12,229.00 261.12,222.38 261.12,222.38
             261.12,222.38 258.38,215.62 258.38,215.62 Z
           M 231.50,156.50
           C 231.50,156.50 234.12,153.50 234.12,153.50
             234.12,153.50 241.50,153.88 241.50,153.88
             241.50,153.88 246.88,160.12 246.88,160.12
             246.88,160.12 246.12,164.38 246.12,164.38
             246.12,164.38 242.50,167.12 242.50,167.12
             242.50,167.12 238.00,167.88 238.00,167.88
             238.00,167.88 233.25,166.38 233.25,166.38
             233.25,166.38 230.88,164.62 230.88,164.62
             230.88,164.62 231.50,156.50 231.50,156.50 Z
           M 266.75,147.25
           C 266.75,147.25 262.12,146.62 262.12,146.62
             262.12,146.62 257.75,154.25 257.75,154.25
             257.75,154.25 257.25,160.75 257.25,160.75
             257.25,160.75 259.12,166.38 259.12,166.38
             259.12,166.38 266.38,167.38 266.38,167.38
             266.38,167.38 270.88,165.88 270.88,165.88
             270.88,165.88 275.62,161.62 275.62,161.62
             275.62,161.62 275.62,153.38 275.62,153.38
             275.62,153.38 266.75,147.25 266.75,147.25 Z
           M 285.88,155.38
           C 285.88,155.38 301.75,155.38 301.75,155.38
             301.75,155.38 303.62,164.75 303.62,164.75
             303.62,164.75 301.38,168.75 301.38,168.75
             301.38,168.75 294.62,169.62 294.62,169.62
             294.62,169.62 291.00,166.38 291.00,166.38
             291.00,166.38 286.75,159.88 286.75,159.88
             286.75,159.88 285.88,155.38 285.88,155.38 Z
           M 311.38,151.12
           C 311.38,151.12 316.25,148.38 316.25,148.38
             316.25,148.38 321.50,146.38 321.50,146.38
             321.50,146.38 326.88,147.00 326.88,147.00
             326.88,147.00 331.50,148.88 331.50,148.88
             331.50,148.88 334.62,153.62 334.62,153.62
             334.62,153.62 336.50,160.12 336.50,160.12
             336.50,160.12 335.88,165.38 335.88,165.38
             335.88,165.38 330.25,170.75 330.25,170.75
             330.25,170.75 325.00,172.50 325.00,172.50
             325.00,172.50 318.88,171.88 318.88,171.88
             318.88,171.88 313.88,169.62 313.88,169.62
             313.88,169.62 311.50,165.12 311.50,165.12
             311.50,165.12 310.00,161.25 310.00,161.25
             310.00,161.25 311.38,151.12 311.38,151.12 Z
           M 289.62,178.25
           C 289.62,178.25 294.50,178.62 294.50,178.62
             294.50,178.62 312.75,182.50 312.75,182.50
             312.75,182.50 314.38,186.25 314.38,186.25
             314.38,186.25 315.75,192.38 315.75,192.38
             315.75,192.38 313.62,196.62 313.62,196.62
             313.62,196.62 305.50,204.38 305.50,204.38
             305.50,204.38 300.50,206.00 300.50,206.00
             300.50,206.00 291.25,207.12 291.25,207.12
             291.25,207.12 286.12,205.38 286.12,205.38
             286.12,205.38 281.00,201.25 281.00,201.25
             281.00,201.25 278.50,193.62 278.50,193.62
             278.50,193.62 278.12,187.50 278.12,187.50
             278.12,187.50 281.88,182.75 281.88,182.75
             281.88,182.75 285.12,179.50 285.12,179.50
             285.12,179.50 289.62,178.25 289.62,178.25 Z
           M 316.00,195.25
           C 316.00,195.25 314.62,200.75 314.62,200.75
             314.62,200.75 313.25,208.25 313.25,208.25
             313.25,208.25 312.88,212.12 312.88,212.12
             312.88,212.12 315.75,214.00 315.75,214.00
             315.75,214.00 320.38,214.38 320.38,214.38
             320.38,214.38 325.50,214.00 325.50,214.00
             325.50,214.00 330.50,210.12 330.50,210.12
             330.50,210.12 333.88,207.75 333.88,207.75
             333.88,207.75 333.50,202.25 333.50,202.25
             333.50,202.25 330.12,200.75 330.12,200.75
             330.12,200.75 322.75,196.38 322.75,196.38
             322.75,196.38 319.88,194.50 319.88,194.50
             319.88,194.50 316.00,195.25 316.00,195.25 Z
           M 289.12,209.75
           C 289.12,209.75 296.25,209.50 296.25,209.50
             296.25,209.50 300.12,212.12 300.12,212.12
             300.12,212.12 303.50,218.00 303.50,218.00
             303.50,218.00 305.88,224.25 305.88,224.25
             305.88,224.25 304.38,227.62 304.38,227.62
             304.38,227.62 299.25,229.88 299.25,229.88
             299.25,229.88 291.38,229.88 291.38,229.88
             291.38,229.88 289.88,222.88 289.88,222.88
             289.88,222.88 287.88,216.62 287.88,216.62
             287.88,216.62 289.12,209.75 289.12,209.75 Z
           M 200.38,223.00
           C 200.38,223.00 200.38,216.50 200.38,216.50
             200.38,216.50 207.75,210.75 207.75,210.75
             207.75,210.75 215.38,205.00 215.38,205.00
             215.38,205.00 220.38,202.12 220.38,202.12
             220.38,202.12 223.88,201.38 223.88,201.38
             223.88,201.38 226.75,202.00 226.75,202.00
             226.75,202.00 230.38,204.50 230.38,204.50
             230.38,204.50 234.00,208.12 234.00,208.12
             234.00,208.12 237.50,210.62 237.50,210.62
             237.50,210.62 240.00,213.88 240.00,214.00
             240.00,214.12 239.25,217.50 239.25,217.50
             239.25,217.50 230.00,224.38 230.00,224.38
             230.00,224.38 219.88,229.50 219.88,229.50
             219.88,229.50 214.62,231.88 214.62,231.88
             214.62,231.88 210.75,230.75 210.75,230.75
             210.75,230.75 203.62,227.12 203.62,227.12
             203.62,227.12 200.38,223.00 200.38,223.00 Z
           M 182.75,232.62
           C 182.75,232.62 188.25,233.00 188.25,233.00
             188.25,233.00 191.50,235.12 191.50,235.12
             191.50,235.12 194.88,238.25 194.88,238.25
             194.88,238.25 197.38,243.38 197.38,243.38
             197.38,243.38 197.25,249.38 197.25,249.38
             197.25,249.38 195.50,254.50 195.50,254.50
             195.50,254.50 192.12,258.88 192.12,258.88
             192.12,258.88 182.50,261.00 182.50,261.00
             182.50,261.00 179.12,259.75 179.12,259.75
             179.12,259.75 174.12,258.38 174.12,258.38
             174.12,258.38 170.62,254.25 170.62,254.25
             170.62,254.25 169.38,250.88 169.38,250.88
             169.38,250.88 169.50,244.00 169.50,244.00
             169.50,244.00 169.75,239.62 169.75,239.62
             169.75,239.62 174.25,235.00 174.25,235.00
             174.25,235.00 178.25,232.88 178.25,232.88
             178.25,232.88 182.75,232.62 182.75,232.62 Z
           M 179.88,264.12
           C 179.88,264.12 184.38,264.62 184.38,264.62
             184.38,264.62 188.25,267.50 188.25,267.50
             188.25,267.50 191.38,271.25 191.38,271.25
             191.38,271.25 193.00,275.75 193.00,275.75
             193.00,275.75 191.50,283.88 191.50,283.88
             191.50,283.88 190.00,287.12 189.50,287.12
             189.00,287.12 183.62,287.25 183.62,287.25
             183.62,287.25 179.88,285.12 179.88,285.12
             179.88,285.12 176.50,278.75 176.50,278.75
             176.50,278.75 174.88,270.25 174.88,270.25
             174.88,270.25 177.25,266.00 177.25,266.00
             177.25,266.00 179.88,264.12 179.88,264.12 Z
           M 203.25,271.62
           C 203.25,271.62 221.75,271.38 221.75,271.38
             221.75,271.38 224.38,272.62 224.38,272.62
             224.38,272.62 227.25,275.25 227.62,275.38
             228.00,275.50 228.88,279.62 228.88,279.62
             228.88,279.62 227.00,282.25 227.00,282.25
             227.00,282.25 219.25,286.50 219.25,286.50
             219.25,286.50 214.75,289.50 214.62,289.50
             214.50,289.50 206.62,289.62 206.62,289.62
             206.62,289.62 199.12,284.25 199.12,284.25
             199.12,284.25 199.00,278.50 199.00,278.50
             199.00,278.50 199.75,273.00 199.75,273.00
             199.75,273.00 203.25,271.62 203.25,271.62 Z
           M 175.25,303.50
           C 175.25,303.50 175.62,298.00 175.62,298.00
             175.62,298.00 176.62,294.50 176.62,294.50
             176.62,294.50 181.50,292.88 181.50,292.88
             181.50,292.88 185.88,292.75 185.88,292.75
             185.88,292.75 190.38,293.75 190.38,293.75
             190.38,293.75 193.25,296.00 193.25,296.00
             193.25,296.00 195.38,299.12 195.38,299.50
             195.38,299.88 194.75,305.12 194.75,305.25
             194.75,305.38 192.12,310.00 192.12,310.00
             192.12,310.00 188.00,313.38 188.00,313.38
             188.00,313.38 185.00,313.38 184.62,313.38
             184.25,313.38 179.50,310.25 179.50,310.25
             179.50,310.25 175.25,303.50 175.25,303.50 Z
           M 208.12,299.62
           C 208.12,299.62 209.50,297.88 209.50,297.75
             209.50,297.62 212.62,295.88 212.62,295.88
             212.62,295.88 214.50,296.75 214.50,296.75
             214.50,296.75 217.75,298.38 217.75,298.38
             217.75,298.38 219.62,302.38 219.62,302.38
             219.62,302.38 219.75,306.50 219.75,306.50
             219.75,306.50 219.12,309.38 219.12,309.38
             219.12,309.38 216.38,312.25 216.38,312.25
             216.38,312.25 213.00,313.38 212.88,313.38
             212.75,313.38 207.75,312.88 207.75,312.88
             207.75,312.88 205.62,310.00 205.62,310.00
             205.62,310.00 206.25,304.12 206.12,304.25
             206.00,304.38 208.12,299.62 208.12,299.62 Z
           M 231.00,280.62
           C 231.00,280.62 234.25,277.62 234.25,277.62
             234.25,277.62 238.50,277.00 238.50,277.00
             238.50,277.00 243.38,276.88 243.38,276.88
             243.38,276.88 246.25,278.25 246.25,278.25
             246.25,278.25 248.50,280.12 248.50,280.12
             248.50,280.12 248.75,293.00 248.75,293.00
             248.75,293.00 246.12,294.62 246.12,294.62
             246.12,294.62 235.88,294.88 235.88,294.88
             235.88,294.88 230.25,293.38 230.25,293.38
             230.25,293.38 231.00,280.62 231.00,280.62 Z
           M 255.75,279.25
           C 255.75,279.25 258.50,274.38 258.50,274.38
             258.50,274.38 263.12,271.12 263.12,271.12
             263.12,271.12 269.75,269.00 269.75,269.00
             269.75,269.00 276.75,269.25 276.75,269.25
             276.75,269.25 277.75,272.50 277.75,272.50
             277.75,272.50 276.62,277.88 276.62,277.88
             276.62,277.88 275.38,285.88 275.38,285.88
             275.38,285.88 272.25,287.75 272.25,287.75
             272.25,287.75 256.50,287.50 256.38,287.38
             256.25,287.25 255.75,279.25 255.75,279.25 Z
           M 280.75,274.38
           C 280.75,274.38 301.88,264.00 301.88,264.00
             301.88,264.00 305.25,265.75 305.25,265.75
             305.25,265.75 308.62,270.25 308.62,270.25
             308.62,270.25 309.75,275.50 309.75,275.50
             309.75,275.50 308.62,280.12 308.50,280.12
             308.38,280.12 303.88,286.50 303.88,286.50
             303.88,286.50 302.50,287.88 302.38,287.88
             302.25,287.88 295.38,287.50 295.38,287.50
             295.38,287.50 289.62,285.38 289.38,285.38
             289.12,285.38 284.00,282.25 284.00,282.25
             284.00,282.25 280.50,278.38 280.50,278.38
             280.50,278.38 280.75,274.38 280.75,274.38 Z
           M 314.50,275.12
           C 314.50,275.12 315.62,273.38 315.75,273.38
             315.88,273.38 320.38,271.88 320.38,271.88
             320.38,271.88 330.00,270.75 330.00,270.75
             330.00,270.75 332.00,274.38 332.00,274.38
             332.00,274.38 332.00,279.88 332.00,279.88
             332.00,279.88 330.25,283.38 330.25,283.38
             330.25,283.38 327.38,284.88 327.38,284.88
             327.38,284.88 322.00,284.88 322.00,284.88
             322.00,284.88 317.38,282.50 317.38,282.50
             317.38,282.50 314.38,279.75 314.38,279.75
             314.38,279.75 314.50,275.12 314.50,275.12 Z
           M 310.62,281.50
           C 310.62,281.50 313.75,281.50 313.75,281.50
             313.75,281.50 316.38,283.62 316.38,283.62
             316.38,283.62 320.38,286.62 320.38,286.62
             320.38,286.62 327.25,287.75 327.25,287.75
             327.25,287.75 333.25,288.12 333.25,288.12
             333.25,288.12 335.62,291.62 335.62,291.62
             335.62,291.62 333.00,296.88 333.00,296.88
             333.00,296.88 328.38,301.75 328.38,301.75
             328.38,301.75 321.50,306.88 321.50,306.88
             321.50,306.88 313.38,306.50 313.38,306.62
             313.38,306.75 308.50,304.75 308.50,304.75
             308.50,304.75 306.00,298.50 306.00,298.50
             306.00,298.50 304.50,292.75 304.50,292.75
             304.50,292.75 305.25,287.00 305.25,287.00
             305.25,287.00 306.75,283.88 306.75,283.88
             306.75,283.88 310.62,281.50 310.62,281.50 Z
           M 171.25,323.00
           C 171.25,323.00 178.25,318.50 178.25,318.50
             178.25,318.50 185.25,318.88 185.25,318.88
             185.25,318.88 192.25,321.88 192.25,321.88
             192.25,321.88 198.25,327.62 198.25,327.62
             198.25,327.62 202.00,334.12 202.12,334.12
             202.25,334.12 202.88,339.62 202.88,339.62
             202.88,339.62 200.75,344.88 200.75,344.88
             200.75,344.88 195.12,347.00 195.12,347.00
             195.12,347.00 185.62,345.38 185.62,345.38
             185.62,345.38 179.75,341.38 179.75,341.38
             179.75,341.38 172.50,335.00 172.50,335.00
             172.50,335.00 170.75,329.75 170.75,329.75
             170.75,329.75 171.25,323.00 171.25,323.00 Z
           M 227.38,331.88
           C 227.38,331.88 231.00,326.50 231.00,326.50
             231.00,326.50 235.88,323.12 236.00,323.00
             236.12,322.88 242.50,320.12 242.50,320.12
             242.50,320.12 248.75,319.75 248.75,319.75
             248.75,319.75 255.12,321.25 255.12,321.25
             255.12,321.25 259.25,328.88 259.25,328.88
             259.25,328.88 260.00,337.62 260.00,337.62
             260.00,337.62 257.25,343.12 257.25,343.12
             257.25,343.12 249.38,346.50 249.38,346.50
             249.38,346.50 238.50,347.25 238.50,347.25
             238.50,347.25 231.38,346.75 231.38,346.75
             231.38,346.75 227.25,343.12 227.25,343.12
             227.25,343.12 225.75,337.12 225.75,337.12
             225.75,337.12 227.38,331.88 227.38,331.88 Z
           M 264.75,320.88
           C 264.75,320.88 269.50,322.38 269.50,322.38
             269.50,322.38 273.50,327.25 273.50,327.25
             273.50,327.25 277.12,330.88 277.12,330.88
             277.12,330.88 280.62,336.25 280.50,336.50
             280.38,336.75 277.75,341.12 277.75,341.12
             277.75,341.12 272.12,342.75 272.12,342.75
             272.12,342.75 265.88,342.62 265.88,342.62
             265.88,342.62 263.38,340.00 263.38,340.00
             263.38,340.00 261.50,333.75 261.50,333.75
             261.50,333.75 262.50,327.50 262.50,327.50
             262.50,327.50 263.00,323.38 263.00,323.38
             263.00,323.38 264.75,320.88 264.75,320.88 Z
           M 266.25,310.88
           C 266.25,310.88 267.88,307.75 267.88,307.75
             267.88,307.75 270.25,305.62 270.25,305.62
             270.25,305.62 273.88,302.88 273.88,302.88
             273.88,302.88 277.88,303.00 277.88,303.00
             277.88,303.00 282.38,304.25 282.38,304.25
             282.38,304.25 284.62,308.12 284.62,308.12
             284.62,308.12 285.25,313.50 285.38,313.88
             285.50,314.25 284.75,317.88 284.75,318.00
             284.75,318.12 281.00,319.62 281.00,319.62
             281.00,319.62 273.62,319.62 273.62,319.62
             273.62,319.62 269.00,318.25 268.75,318.00
             268.50,317.75 266.62,315.62 266.62,315.62
             266.62,315.62 266.25,310.88 266.25,310.88 Z
           M 225.38,255.25
           C 225.38,255.25 227.75,250.88 227.75,250.88
             227.75,250.88 230.75,246.50 230.75,246.50
             230.75,246.50 233.50,243.88 233.50,243.88
             233.50,243.88 239.25,242.38 239.25,242.38
             239.25,242.38 247.12,242.50 247.12,242.50
             247.12,242.50 252.25,245.75 252.25,245.75
             252.25,245.75 256.38,249.38 256.38,249.38
             256.38,249.38 259.25,254.25 259.25,254.25
             259.25,254.25 260.25,260.12 260.25,260.12
             260.25,260.12 257.75,265.88 257.75,265.88
             257.75,265.88 252.75,270.50 252.75,270.50
             252.75,270.50 245.38,272.00 245.38,272.00
             245.38,272.00 236.62,272.50 236.62,272.50
             236.62,272.50 231.00,270.75 231.00,270.75
             231.00,270.75 227.38,266.12 227.38,266.12
             227.38,266.12 224.50,260.62 224.50,260.62
             224.50,260.62 225.38,255.25 225.38,255.25 Z
           M 272.38,231.12
           C 272.38,231.12 276.50,232.62 276.50,232.62
             276.50,232.62 278.50,239.25 278.50,239.25
             278.50,239.25 278.38,243.25 278.38,243.25
             278.38,243.25 276.88,248.00 276.88,248.00
             276.88,248.00 276.50,253.38 276.50,253.38
             276.50,253.38 277.25,257.88 277.25,257.88
             277.25,257.88 277.12,263.00 277.00,263.00
             276.88,263.00 272.00,266.38 272.00,266.38
             272.00,266.38 266.75,267.12 266.75,267.12
             266.75,267.12 262.88,264.62 262.88,264.62
             262.88,264.62 261.38,262.50 261.38,262.50
             261.38,262.50 259.88,251.88 259.88,251.88
             259.88,251.88 260.62,244.62 260.62,244.62
             260.62,244.62 261.50,238.00 261.50,238.00
             261.50,238.00 264.00,233.75 264.00,233.75
             264.00,233.75 266.75,231.00 266.75,231.00
             266.75,231.00 272.38,231.12 272.38,231.12 Z
           M 290.75,237.75
           C 290.75,237.75 292.50,234.62 292.62,234.62
             292.75,234.62 298.00,232.88 298.00,232.88
             298.00,232.88 304.12,232.12 304.12,232.12
             304.12,232.12 309.62,232.62 309.62,232.62
             309.62,232.62 310.88,239.12 310.88,239.12
             310.88,239.12 308.62,243.88 308.62,243.88
             308.62,243.88 303.00,245.75 303.00,245.75
             303.00,245.75 297.00,245.88 297.00,245.88
             297.00,245.88 292.75,243.62 292.75,243.62
             292.75,243.62 290.12,240.88 290.12,240.88
             290.12,240.88 290.75,237.75 290.75,237.75 Z
           M 311.50,256.00
           C 311.50,255.88 312.38,250.50 312.38,250.50
             312.38,250.50 314.38,245.50 314.38,245.50
             314.38,245.50 318.25,242.38 318.25,242.38
             318.25,242.38 322.88,240.50 322.88,240.50
             322.88,240.50 329.25,239.62 329.25,239.62
             329.25,239.62 333.88,240.88 333.88,240.88
             333.88,240.88 336.62,246.62 336.62,246.62
             336.62,246.62 333.50,251.12 333.50,251.12
             333.50,251.12 331.12,255.25 331.12,255.25
             331.12,255.25 327.00,258.75 327.00,258.75
             327.00,258.75 320.75,260.00 320.75,260.00
             320.75,260.00 314.25,260.12 314.25,260.12
             314.25,260.12 311.50,256.12 311.50,256.00 Z
           M 202.38,366.62
           C 202.38,366.62 206.00,362.38 206.00,362.38
             206.00,362.38 207.88,356.62 207.88,356.62
             207.88,356.62 209.25,350.50 209.25,350.50
             209.25,350.50 209.62,346.88 209.62,346.88
             209.62,346.88 213.88,347.75 213.88,347.75
             213.88,347.75 216.62,350.12 216.62,350.12
             216.62,350.12 220.88,350.75 220.88,350.75
             220.88,350.75 225.88,350.88 225.88,350.88
             225.88,350.88 225.88,353.50 225.88,353.50
             225.88,353.50 223.75,357.62 223.75,357.62
             223.75,357.62 221.88,361.75 221.75,361.88
             221.62,362.00 220.12,367.00 220.12,367.25
             220.12,367.50 219.12,373.75 219.12,373.75
             219.12,373.75 215.88,374.25 215.88,374.25
             215.88,374.25 211.25,373.00 211.25,373.00
             211.25,373.00 208.25,371.25 208.25,371.25
             208.25,371.25 202.38,366.62 202.38,366.62 Z
           M 190.38,378.75
           C 190.38,378.75 195.62,378.62 195.62,378.62
             195.62,378.62 200.62,378.50 200.62,378.50
             200.62,378.50 206.00,380.62 206.00,380.62
             206.00,380.62 209.38,384.12 209.38,384.12
             209.38,384.12 206.50,387.75 206.38,387.88
             206.25,388.00 202.12,391.25 202.12,391.25
             202.12,391.25 198.25,391.38 198.25,391.38
             198.25,391.38 195.12,388.12 195.12,388.12
             195.12,388.12 191.12,384.38 191.12,384.38
             191.12,384.38 190.38,378.75 190.38,378.75 Z
           M 209.88,392.00
           C 209.88,392.00 214.00,390.38 214.00,390.38
             214.00,390.38 219.75,390.38 219.75,390.38
             219.75,390.38 224.25,391.12 224.25,391.12
             224.25,391.12 229.50,393.25 229.50,393.25
             229.50,393.25 228.75,397.62 228.50,397.88
             228.25,398.12 223.50,402.62 223.50,402.62
             223.50,402.62 214.62,403.38 214.62,403.38
             214.62,403.38 210.25,399.25 210.25,399.25
             210.25,399.25 209.88,392.00 209.88,392.00 Z
           M 234.25,387.12
           C 234.25,387.12 235.88,381.38 235.88,381.38
             235.88,381.38 240.88,378.88 240.88,378.88
             240.88,378.88 246.50,378.00 246.50,378.00
             246.50,378.00 250.75,380.50 250.75,380.50
             250.75,380.50 252.88,386.25 252.88,386.25
             252.88,386.25 252.50,392.12 252.50,392.12
             252.50,392.12 249.12,395.00 248.88,395.12
             248.62,395.25 242.88,398.50 242.88,398.50
             242.88,398.50 236.12,399.88 236.12,399.88
             236.12,399.88 233.50,395.38 233.50,395.38
             233.50,395.38 234.25,387.12 234.25,387.12 Z
           M 254.25,381.00
           C 254.25,381.00 258.50,380.12 258.50,380.12
             258.50,380.12 263.62,378.50 263.62,378.50
             263.62,378.50 267.25,374.62 267.25,374.62
             267.25,374.62 270.25,372.12 270.25,372.12
             270.25,372.12 277.00,373.50 277.00,373.50
             277.00,373.50 280.62,378.00 280.62,378.00
             280.62,378.00 280.38,385.50 280.38,385.50
             280.38,385.50 276.88,390.62 276.88,390.62
             276.88,390.62 271.38,395.00 271.38,395.00
             271.38,395.00 266.00,396.00 266.00,396.00
             266.00,396.00 261.62,395.25 261.50,395.25
             261.38,395.25 255.75,392.50 255.75,392.50
             255.75,392.50 253.62,388.62 253.62,388.62
             253.62,388.62 253.62,384.38 253.62,384.38
             253.62,384.38 254.25,381.00 254.25,381.00 Z
           M 288.12,383.88
           C 288.12,383.88 294.38,388.50 294.38,388.50
             294.38,388.50 295.62,397.38 295.62,397.38
             295.62,397.38 294.50,403.38 294.50,403.38
             294.50,403.38 291.88,408.00 291.75,408.12
             291.62,408.25 287.75,410.38 287.75,410.38
             287.75,410.38 280.62,410.50 280.62,410.50
             280.62,410.50 277.25,405.25 277.25,405.00
             277.25,404.75 276.12,396.62 276.12,396.62
             276.12,396.62 277.88,392.75 277.88,392.75
             277.88,392.75 279.62,389.25 279.62,389.25
             279.62,389.25 282.75,384.88 282.75,384.88
             282.75,384.88 288.12,383.88 288.12,383.88 Z
           M 181.38,406.38
           C 181.38,406.38 185.38,404.50 185.38,404.50
             185.38,404.50 190.62,402.75 190.62,402.75
             190.62,402.75 194.50,403.62 194.50,403.62
             194.50,403.62 198.75,405.75 199.00,406.00
             199.25,406.25 201.50,410.00 201.50,410.38
             201.50,410.75 200.75,416.00 200.75,416.00
             200.75,416.00 200.25,419.25 200.25,419.25
             200.25,419.25 195.00,423.00 195.00,423.00
             195.00,423.00 191.38,425.50 191.38,425.50
             191.38,425.50 182.50,425.12 182.50,425.12
             182.50,425.12 179.00,423.62 178.88,423.50
             178.75,423.38 176.88,417.50 176.88,417.50
             176.88,417.50 177.00,411.00 177.00,411.00
             177.00,411.00 181.38,406.38 181.38,406.38 Z
           M 231.62,409.00
           C 231.62,409.00 234.75,406.75 234.75,406.75
             234.75,406.75 240.25,406.25 240.38,406.25
             240.50,406.25 248.50,406.50 248.50,406.50
             248.50,406.50 253.00,409.50 253.00,409.50
             253.00,409.50 255.00,413.38 255.00,413.38
             255.00,413.38 252.25,417.12 252.25,417.12
             252.25,417.12 250.12,422.38 250.12,422.38
             250.12,422.38 245.00,425.00 245.00,425.00
             245.00,425.00 241.12,424.50 241.12,424.50
             241.12,424.50 235.00,419.50 235.00,419.50
             235.00,419.50 232.25,415.50 232.25,415.50
             232.25,415.50 231.62,409.00 231.62,409.00 Z
           M 259.00,359.38
           C 259.00,359.38 261.75,357.75 261.75,357.75
             261.75,357.75 267.12,356.75 267.12,356.75
             267.12,356.75 270.62,356.62 271.12,356.75
             271.62,356.88 275.62,359.00 275.62,359.00
             275.62,359.00 275.25,364.12 275.25,364.12
             275.25,364.12 274.75,368.62 274.75,368.62
             274.75,368.62 269.25,369.00 268.88,369.00
             268.50,369.00 265.12,365.75 265.12,365.75
             265.12,365.75 260.88,363.00 260.88,363.00
             260.88,363.00 259.00,359.38 259.00,359.38 Z
           M 276.50,350.62
           C 276.50,350.62 279.25,347.88 279.25,347.88
             279.25,347.88 283.88,346.50 283.88,346.50
             283.88,346.50 288.12,346.62 288.12,346.62
             288.12,346.62 291.75,348.25 291.88,348.25
             292.00,348.25 294.62,350.88 294.62,351.00
             294.62,351.12 294.62,355.50 294.62,355.50
             294.62,355.50 291.75,357.50 291.75,357.50
             291.75,357.50 283.38,357.25 283.12,357.25
             282.88,357.25 279.75,355.62 279.62,355.62
             279.50,355.62 276.50,350.62 276.50,350.62 Z
           M 293.88,358.75
           C 293.88,358.75 296.50,357.50 296.50,357.50
             296.50,357.50 299.62,358.25 299.88,358.50
             300.12,358.75 300.62,362.75 300.62,362.75
             300.62,362.75 299.00,365.75 299.00,365.75
             299.00,365.75 296.12,368.50 295.88,368.50
             295.62,368.50 293.75,368.25 293.75,368.25
             293.75,368.25 293.12,364.38 293.12,364.38
             293.12,364.38 293.88,358.75 293.88,358.75 Z
           M 313.50,365.50
           C 313.50,365.50 315.50,359.75 315.50,359.75
             315.50,359.75 317.50,356.12 317.50,356.12
             317.50,356.12 321.50,353.38 321.50,353.38
             321.50,353.38 327.25,352.75 327.25,352.75
             327.25,352.75 331.50,356.00 331.50,356.00
             331.50,356.00 337.00,360.88 337.00,360.88
             337.00,360.88 341.00,364.62 341.00,364.62
             341.00,364.62 343.38,368.00 343.38,368.00
             343.38,368.00 343.38,372.12 343.38,372.12
             343.38,372.12 341.38,374.25 341.38,374.25
             341.38,374.25 336.25,374.25 336.25,374.25
             336.25,374.25 332.50,372.62 332.50,372.62
             332.50,372.62 327.00,371.00 327.00,371.00
             327.00,371.00 322.88,371.75 322.88,371.75
             322.88,371.75 316.00,371.25 316.00,371.25
             316.00,371.25 313.50,365.50 313.50,365.50 Z
           M 319.88,380.62
           C 319.88,380.62 319.88,384.50 319.88,384.50
             319.88,384.50 320.88,388.12 320.88,388.25
             320.88,388.38 318.25,392.12 318.25,392.12
             318.25,392.12 316.50,394.12 316.50,394.12
             316.50,394.12 316.00,398.00 316.00,398.00
             316.00,398.00 319.25,398.00 319.25,398.00
             319.25,398.00 325.00,398.00 325.00,398.00
             325.00,398.00 329.38,396.12 329.38,396.12
             329.38,396.12 331.88,392.38 331.88,392.38
             331.88,392.38 332.25,387.50 332.25,387.50
             332.25,387.50 332.25,383.62 331.88,383.62
             331.50,383.62 329.12,381.38 328.88,381.38
             328.62,381.38 325.12,380.25 325.12,380.25
             325.12,380.25 319.88,380.62 319.88,380.62 Z
           M 126.50,416.12
           C 126.50,416.12 128.00,410.88 128.00,410.88
             128.00,410.88 130.38,407.75 130.38,407.75
             130.38,407.75 136.50,405.75 136.50,405.75
             136.50,405.75 139.12,409.25 139.12,409.38
             139.12,409.50 139.62,413.00 139.62,413.00
             139.62,413.00 138.62,416.75 138.50,417.00
             138.38,417.25 136.00,419.88 136.00,419.88
             136.00,419.88 133.38,421.62 133.12,421.62
             132.88,421.62 129.25,420.38 129.25,420.38
             129.25,420.38 126.50,416.12 126.50,416.12 Z
           M 145.50,413.50
           C 145.50,413.50 150.25,410.75 150.25,410.75
             150.25,410.75 159.62,407.00 159.62,407.00
             159.62,407.00 164.00,407.00 164.00,407.00
             164.00,407.00 169.12,407.88 169.12,407.88
             169.12,407.88 172.38,413.00 172.38,413.38
             172.38,413.75 172.38,418.00 172.38,418.00
             172.38,418.00 168.38,423.88 168.38,423.88
             168.38,423.88 165.75,425.00 165.38,425.00
             165.00,425.00 159.25,423.62 159.00,423.62
             158.75,423.62 150.88,421.75 150.88,421.75
             150.88,421.75 146.38,418.75 146.38,418.75
             146.38,418.75 145.50,413.50 145.50,413.50 Z" />
</svg>
